# xmcd
#
# Track frame offsets:
#	150
#	12450
#	30600
#	42800
#	56100
#	72175
#	82900
#	101850
#	115075
#	132525
#
# Disc length: 1923 seconds
#
# Revision: 2
# Processed by: cddbd v1.5.1PL0 Copyright (c) Steve Scherf et al.
# Submitted via: EasyCDDAExtractor 8.1.4.1
#
DISCID=8507810a
DTITLE=Murielle Leclerc - A Chacun Son Reve
DYEAR=2004
DGENRE=Country
TTITLE0=Amusez-vous
TTITLE1=Dieu de la mer
TTITLE2=Etre naturel
TTITLE3=Viens dand mes bras
TTITLE4=À cahcun sa chason
TTITLE5=À cause de lui
TTITLE6=Emprisonné de ton passé
TTITLE7=Salut mon chum
TTITLE8=Viens près de moi mon amour
TTITLE9=Ma tendre enfance
EXTD=YEAR: 2004
EXTT0=
EXTT1=
EXTT2=
EXTT3=
EXTT4=
EXTT5=
EXTT6=
EXTT7=
EXTT8=
EXTT9=
PLAYORDER=
